<svg xmlns="http://www.w3.org/2000/svg" width="300" height="300" viewBox="0 0 300 300">
  <rect width="300" height="300" fill="#f8f4ff" rx="16"/>
  <rect x="20" y="20" width="120" height="120" fill="white" stroke="#e0d4f5" stroke-width="2" rx="8"/>
  <rect x="160" y="20" width="120" height="120" fill="white" stroke="#e0d4f5" stroke-width="2" rx="8"/>
  <rect x="20" y="160" width="120" height="120" fill="white" stroke="#e0d4f5" stroke-width="2" rx="8"/>
  <rect x="160" y="160" width="120" height="120" fill="white" stroke="#e0d4f5" stroke-width="2" rx="8"/>
  <rect x="35" y="35" width="30" height="30" fill="#7c3aed" rx="4"/>
  <rect x="75" y="35" width="30" height="30" fill="#7c3aed" rx="4"/>
  <rect x="35" y="75" width="30" height="30" fill="#7c3aed" rx="4"/>
  <rect x="75" y="75" width="30" height="30" fill="#7c3aed" rx="4"/>
  <rect x="175" y="35" width="30" height="30" fill="#7c3aed" rx="4"/>
  <rect x="215" y="35" width="30" height="30" fill="#7c3aed" rx="4"/>
  <rect x="175" y="75" width="30" height="30" fill="#7c3aed" rx="4"/>
  <rect x="215" y="75" width="30" height="30" fill="#7c3aed" rx="4"/>
  <rect x="35" y="175" width="30" height="30" fill="#7c3aed" rx="4"/>
  <rect x="75" y="175" width="30" height="30" fill="#7c3aed" rx="4"/>
  <rect x="35" y="215" width="30" height="30" fill="#7c3aed" rx="4"/>
  <rect x="75" y="215" width="30" height="30" fill="#7c3aed" rx="4"/>
  <rect x="175" y="175" width="30" height="30" fill="#7c3aed" rx="4"/>
  <rect x="215" y="175" width="30" height="30" fill="#7c3aed" rx="4"/>
  <rect x="175" y="215" width="30" height="30" fill="#7c3aed" rx="4"/>
  <rect x="215" y="215" width="30" height="30" fill="#7c3aed" rx="4"/>
  <rect x="125" y="125" width="50" height="50" fill="#7c3aed" rx="6"/>
  <text x="150" y="285" text-anchor="middle" font-family="Arial" font-size="11" fill="#a78bfa" font-weight="bold">COLOCA TU QR YAPE AQUÍ</text>
</svg>
